<svg id="Layer_3" enable-background="new 0 0 64 64" height="512" viewBox="0 0 64 64" width="512" xmlns="http://www.w3.org/2000/svg"><circle cx="45" cy="45" fill="#674025" r="17"/><path d="m60.663 51.619c-.913-.989-2.21-1.619-3.663-1.619-2.761 0-5 2.239-5 5 0 1.773.929 3.321 2.32 4.209 2.797-1.839 5.024-4.473 6.343-7.59z" fill="#976947"/><path d="m36 52c-2.099 0-3.889 1.296-4.63 3.129 1.941 2.608 4.605 4.634 7.704 5.788 1.164-.916 1.926-2.321 1.926-3.917 0-2.761-2.239-5-5-5z" fill="#976947"/><circle cx="52" cy="37" fill="#976947" r="2"/><circle cx="51" cy="45" fill="#976947" r="2"/><circle cx="43" cy="42" fill="#976947" r="2"/><path d="m17.582 28.058c-8.726.721-15.582 8.031-15.582 16.942 0 9.389 7.611 17 17 17s17-7.611 17-17c0-3.305-.943-6.391-2.576-9.001" fill="#c18e59"/><g fill="#674025"><circle cx="12" cy="37" r="2"/><circle cx="13" cy="45" r="2"/><circle cx="21" cy="42" r="2"/><path d="m32.63 55.129c-.741-1.833-2.531-3.129-4.63-3.129-2.761 0-5 2.239-5 5 0 1.596.762 3.001 1.927 3.917 3.098-1.155 5.762-3.181 7.703-5.788z"/><path d="m33.424 35.999-3.268-1.638c-1.847.735-3.156 2.53-3.156 4.639 0 2.761 2.239 5 5 5 1.513 0 2.854-.687 3.77-1.749-.368-2.264-1.176-4.381-2.346-6.252z"/><path d="m3.337 51.619c1.319 3.117 3.546 5.751 6.343 7.59 1.391-.888 2.32-2.436 2.32-4.209 0-2.761-2.239-5-5-5-1.453 0-2.75.63-3.663 1.619z"/></g><path d="m25.495 3.289c1.468.592 2.505 2.03 2.505 3.711 0 2.209-1.791 4-4 4-.047 0-.091-.012-.137-.014-.441 1.73-1.996 3.014-3.863 3.014-1.493 0-2.796-.818-3.483-2.031h.001c-.975 2.142-1.518 4.523-1.518 7.031 0 9.389 7.611 17 17 17s17-7.611 17-17-7.611-17-17-17c-2.304 0-4.502.458-6.505 1.289z" fill="#976947"/><path d="m25.495 3.289c1.469.592 2.505 2.03 2.505 3.711 0 2.209-1.791 4-4 4-.047 0-.091-.012-.137-.014-.441 1.73-1.996 3.014-3.863 3.014-1.493 0-2.795-.818-3.482-2.031-.975 2.143-1.518 4.524-1.518 7.031 0 1.888.321 3.699.889 5.396 2.756 2.251 6.275 3.604 10.111 3.604 8.837 0 16-7.163 16-16 0-2.962-.819-5.726-2.222-8.105-2.332-1.203-4.972-1.895-7.778-1.895-2.304 0-4.501.458-6.505 1.289z" fill="#c18e59"/><path d="m16.517 11.969h.001v-.001z" fill="#c18e59"/><path d="" fill="#c18e59"/><circle cx="26" cy="19" fill="#674025" r="2"/><circle cx="34" cy="16" fill="#674025" r="2"/><path d="m44.953 8.005c-2.739.026-4.953 2.25-4.953 4.995 0 2.761 2.239 5 5 5 1.508 0 2.843-.681 3.76-1.736-.506-3.12-1.848-5.954-3.807-8.259z" fill="#674025"/><path d="m45.63 29.129c-.741-1.833-2.531-3.129-4.63-3.129-2.761 0-5 2.239-5 5 0 1.596.762 3.001 1.927 3.917 3.098-1.155 5.762-3.181 7.703-5.788z" fill="#674025"/><path d="m20 24c-1.453 0-2.75.63-3.663 1.619 1.319 3.117 3.546 5.751 6.343 7.59 1.391-.888 2.32-2.436 2.32-4.209 0-2.761-2.239-5-5-5z" fill="#674025"/><path d="m19 63c-9.925 0-18-8.075-18-18 0-9.295 7.247-17.174 16.499-17.938l.164 1.994c-8.222.678-14.663 7.682-14.663 15.944 0 8.822 7.178 16 16 16s16-7.178 16-16c0-3.006-.838-5.936-2.423-8.471l1.695-1.061c1.785 2.855 2.728 6.151 2.728 9.532 0 9.925-8.075 18-18 18z"/><path d="m10.356 59.975-1.121-1.656c1.106-.748 1.765-1.988 1.765-3.319 0-2.206-1.794-4-4-4-1.11 0-2.181.468-2.937 1.284l-1.467-1.359c1.133-1.223 2.738-1.925 4.404-1.925 3.309 0 6 2.691 6 6 0 1.995-.988 3.855-2.644 4.975z"/><path d="m32 45c-3.309 0-6-2.691-6-6 0-1.518.568-2.967 1.6-4.078l1.467 1.359c-.688.741-1.067 1.707-1.067 2.719 0 2.206 1.794 4 4 4 1.162 0 2.266-.505 3.027-1.385l1.512 1.309c-1.142 1.319-2.796 2.076-4.539 2.076z"/><path d="m24.306 61.729c-1.465-1.147-2.306-2.871-2.306-4.729 0-3.309 2.691-6 6-6 2.416 0 4.586 1.438 5.528 3.664l-1.842.779c-.627-1.484-2.075-2.443-3.686-2.443-2.206 0-4 1.794-4 4 0 1.239.561 2.389 1.538 3.152z"/><path d="m12 40c-1.654 0-3-1.346-3-3s1.346-3 3-3 3 1.346 3 3-1.346 3-3 3zm0-4c-.552 0-1 .448-1 1s.448 1 1 1 1-.448 1-1-.448-1-1-1z"/><path d="m13 48c-1.654 0-3-1.346-3-3s1.346-3 3-3 3 1.346 3 3-1.346 3-3 3zm0-4c-.552 0-1 .448-1 1s.448 1 1 1 1-.448 1-1-.448-1-1-1z"/><path d="m21 45c-1.654 0-3-1.346-3-3s1.346-3 3-3 3 1.346 3 3-1.346 3-3 3zm0-4c-.552 0-1 .448-1 1s.448 1 1 1 1-.448 1-1-.448-1-1-1z"/><path d="m15 51h2v2h-2z"/><path d="m17 55h2v2h-2z"/><path d="m22 48h2v2h-2z"/><path d="m23.356 33.975-1.121-1.656c1.106-.748 1.765-1.988 1.765-3.319 0-2.206-1.794-4-4-4-1.11 0-2.181.468-2.937 1.284l-1.467-1.359c1.133-1.223 2.738-1.925 4.404-1.925 3.309 0 6 2.691 6 6 0 1.995-.988 3.855-2.644 4.975z"/><path d="m45 19c-3.309 0-6-2.691-6-6s2.691-6 6-6v2c-2.206 0-4 1.794-4 4s1.794 4 4 4c1.162 0 2.266-.505 3.027-1.385l1.512 1.309c-1.142 1.319-2.796 2.076-4.539 2.076z"/><path d="m37.306 35.729c-1.465-1.147-2.306-2.871-2.306-4.729 0-3.309 2.691-6 6-6 2.416 0 4.586 1.438 5.528 3.664l-1.842.779c-.627-1.484-2.075-2.443-3.686-2.443-2.206 0-4 1.794-4 4 0 1.239.561 2.389 1.538 3.152z"/><path d="m26 22c-1.654 0-3-1.346-3-3s1.346-3 3-3 3 1.346 3 3-1.346 3-3 3zm0-4c-.552 0-1 .448-1 1s.448 1 1 1 1-.448 1-1-.448-1-1-1z"/><path d="m34 19c-1.654 0-3-1.346-3-3s1.346-3 3-3 3 1.346 3 3-1.346 3-3 3zm0-4c-.552 0-1 .448-1 1s.448 1 1 1 1-.448 1-1-.448-1-1-1z"/><path d="m32 5h2v2h-2z"/><path d="m36 9h2v2h-2z"/><path d="m28 25h2v2h-2z"/><path d="m30 29h2v2h-2z"/><path d="m35 22h2v2h-2z"/><path d="m45 63c-5.316 0-10.333-2.333-13.765-6.4l1.529-1.289c3.05 3.615 7.51 5.689 12.236 5.689 8.822 0 16-7.178 16-16 0-8.277-6.454-15.282-14.692-15.947l.16-1.994c9.27.749 16.532 8.629 16.532 17.941 0 9.925-8.075 18-18 18z"/><path d="m53.644 59.975c-1.656-1.12-2.644-2.98-2.644-4.975 0-3.309 2.691-6 6-6 1.666 0 3.271.702 4.403 1.925l-1.467 1.359c-.755-.816-1.826-1.284-2.936-1.284-2.206 0-4 1.794-4 4 0 1.331.659 2.571 1.765 3.318z"/><path d="m39.694 61.729-1.232-1.576c.977-.764 1.538-1.914 1.538-3.153 0-2.206-1.794-4-4-4-.405 0-.807.061-1.191.18l-.592-1.91c.577-.179 1.177-.27 1.783-.27 3.309 0 6 2.691 6 6 0 1.858-.841 3.582-2.306 4.729z"/><path d="m52 40c-1.654 0-3-1.346-3-3s1.346-3 3-3 3 1.346 3 3-1.346 3-3 3zm0-4c-.552 0-1 .448-1 1s.448 1 1 1 1-.448 1-1-.448-1-1-1z"/><path d="m51 48c-1.654 0-3-1.346-3-3s1.346-3 3-3 3 1.346 3 3-1.346 3-3 3zm0-4c-.552 0-1 .448-1 1s.448 1 1 1 1-.448 1-1-.448-1-1-1z"/><path d="m43 45c-1.654 0-3-1.346-3-3s1.346-3 3-3 3 1.346 3 3-1.346 3-3 3zm0-4c-.552 0-1 .448-1 1s.448 1 1 1 1-.448 1-1-.448-1-1-1z"/><path d="m47 51h2v2h-2z"/><path d="m45 55h2v2h-2z"/><path d="m40 48h2v2h-2z"/><path d="m32 37c-9.925 0-18-8.075-18-18 0-2.596.541-5.101 1.607-7.445.155-.343.49-.568.866-.585.378-.026.729.18.914.507.533.939 1.534 1.523 2.613 1.523 1.364 0 2.555-.93 2.895-2.261.117-.457.519-.776 1.012-.752.032.001.126.011.159.016 1.588-.003 2.934-1.349 2.934-3.003 0-1.231-.737-2.323-1.879-2.783-.376-.152-.624-.517-.626-.923s.241-.772.617-.929c2.184-.906 4.501-1.365 6.888-1.365 9.925 0 18 8.075 18 18s-8.075 18-18 18zm-15.162-23.128c-.557 1.643-.838 3.361-.838 5.128 0 8.822 7.178 16 16 16s16-7.178 16-16-7.178-16-16-16c-1.481 0-2.933.199-4.334.593.843.904 1.334 2.109 1.334 3.407 0 2.56-1.933 4.676-4.416 4.966-.775 1.819-2.565 3.034-4.584 3.034-1.169 0-2.282-.411-3.162-1.128z"/></svg>